{"accessors" : [{"bufferView" : 0, "byteOffset" : 0, "componentType" : 5123, "count" : 75000, "type" : "SCALAR", "max" : [14442], "min" : [0]}, {"bufferView" : 1, "byteOffset" : 0, "componentType" : 5126, "count" : 14443, "type" : "VEC3", "max" : [0.16342489421367645, 0.6302024722099304, 0.16710804402828217], "min" : [-0.16342490911483765, 2.3820604155844194E-08, -0.16710802912712097], "name" : "POSITION"}, {"bufferView" : 1, "byteOffset" : 12, "componentType" : 5126, "count" : 14443, "type" : "VEC3", "max" : [0.999997615814209, 0.9999971985816956, 0.9999864101409912], "min" : [-1.0000004768371582, -0.9999751448631287, -0.9998719096183777], "name" : "NORMAL"}, {"bufferView" : 1, "byteOffset" : 24, "componentType" : 5126, "count" : 14443, "type" : "VEC2", "max" : [0.9999649524688721, 0.9999231100082397], "min" : [0.00014656447456218302, 0.009682416915893555], "name" : "TEXCOORD_0"}], "asset" : {"generator" : "Aspose.3D 24.6.0", "version" : "2.0"}, "buffers" : [{"uri" : "buffer.bin", "byteLength" : 10287364}], "bufferViews" : [{"buffer" : 0, "byteOffset" : 0, "byteLength" : 150000, "target" : 34963}, {"buffer" : 0, "byteOffset" : 150004, "byteLength" : 462176, "byteStride" : 32, "target" : 34962}, {"buffer" : 0, "byteOffset" : 612184, "byteLength" : 3114222}, {"buffer" : 0, "byteOffset" : 3726408, "byteLength" : 363197}, {"buffer" : 0, "byteOffset" : 4089608, "byteLength" : 6197752}], "images" : [{"mimeType" : "image/png", "bufferView" : 2}, {"mimeType" : "image/png", "bufferView" : 3}, {"mimeType" : "image/png", "bufferView" : 4}], "materials" : [{"name" : "Texture", "pbrMetallicRoughness" : {"baseColorFactor" : [1, 1, 1, 1], "baseColorTexture" : {"index" : 2, "texCoord" : 0}, "metallicFactor" : 0, "roughnessFactor" : 0.8999999761581421}, "normalTexture" : {"index" : 0, "texCoord" : 0, "scale" : 1}, "occlusionTexture" : {"index" : 1, "texCoord" : 0, "strength" : 0}, "emissiveFactor" : [0, 0, 0], "alphaMode" : "OPAQUE", "doubleSided" : false}], "meshes" : [{"primitives" : [{"attributes" : {"POSITION" : 1, "NORMAL" : 2, "TEXCOORD_0" : 3}, "indices" : 0, "material" : 0, "mode" : 4}], "name" : "Mesh"}], "nodes" : [{"mesh" : 0, "name" : "ObjectCapture"}], "samplers" : [{"magFilter" : 9729, "minFilter" : 9729, "wrapS" : 10497, "wrapT" : 10497}, {"magFilter" : 9729, "minFilter" : 9729, "wrapS" : 10497, "wrapT" : 10497}, {"magFilter" : 9729, "minFilter" : 9729, "wrapS" : 10497, "wrapT" : 10497}], "scene" : 0, "scenes" : [{"nodes" : [0]}], "textures" : [{"sampler" : 0, "source" : 0, "name" : "normal_texture"}, {"sampler" : 1, "source" : 1, "name" : "occlusion_texture"}, {"sampler" : 2, "source" : 2, "name" : "diffuseColor_texture"}]}